<svg width="248" height="39" viewBox="0 0 248 39" fill="none" xmlns="http://www.w3.org/2000/svg">
<path d="M123.459 30.3342H127.173V0.36853H123.459V30.3342Z" fill="white"/>
<path d="M109.814 30.6293C113.656 30.6293 116.905 29.6594 118.553 29.0682V15.3936H109.182V18.3473H114.965V26.8313C114.12 27.2534 112.473 27.5905 110.068 27.5905C103.441 27.5905 99.0937 23.3278 99.0937 16.1109C99.0937 8.97744 103.611 4.67217 110.532 4.67217C113.402 4.67217 115.301 5.22144 116.82 5.89617L117.708 2.90053C116.484 2.3098 113.91 1.59089 110.617 1.59089C101.077 1.59089 95.2542 7.79544 95.2106 16.2789C95.2106 20.7118 96.7302 24.5098 99.1782 26.8733C101.966 29.5318 105.51 30.6293 109.814 30.6293Z" fill="white"/>
<path fill-rule="evenodd" clip-rule="evenodd" d="M34.1388 25.4387C34.1388 27.2104 34.2228 28.9422 34.4764 30.3342H31.0995L30.8044 27.7602H30.6778C29.5389 29.3644 27.3435 30.7984 24.4313 30.7984C20.2951 30.7984 18.1848 27.8851 18.1848 24.932C18.1848 19.994 22.5746 17.2929 30.4668 17.3354V16.9133C30.4668 15.2245 30.0026 12.1858 25.8244 12.1858C23.9251 12.1858 21.9413 12.7771 20.5057 13.7049L19.6624 11.2564C21.3506 10.1589 23.798 9.44217 26.3731 9.44217C32.6197 9.44217 34.1388 13.7049 34.1388 17.798V25.4387ZM30.5508 19.9095C26.4991 19.8244 21.8988 20.5422 21.8988 24.5098C21.8988 26.9158 23.5029 28.0558 25.4022 28.0558C28.0613 28.0558 29.7489 26.366 30.3397 24.6369C30.4668 24.2567 30.5508 23.8351 30.5508 23.4544V19.9095Z" fill="white"/>
<path d="M16.166 29.5749C15.1951 30.0816 13.0428 30.7984 10.2991 30.7984C4.13714 30.7984 0.127502 26.5782 0.127502 20.3316C0.127502 14.042 4.43223 9.48417 11.101 9.48417C13.2953 9.48417 15.2371 10.0334 16.25 10.5396L15.4062 13.4098C14.5199 12.9031 13.1268 12.4384 11.101 12.4384C6.41605 12.4384 3.8835 15.8993 3.8835 20.162C3.8835 24.89 6.92223 27.8027 10.9739 27.8027C13.0853 27.8027 14.4773 27.2534 15.5328 26.7882L16.166 29.5749Z" fill="white"/>
<path d="M38.9175 9.90636C39.0435 11.5956 39.0866 13.3253 39.0866 15.4362V30.3342H42.7155V18.0102C42.7155 17.3774 42.8 16.7436 43.0117 16.196C43.6029 14.3371 45.2906 12.4809 47.612 12.4809C50.4397 12.4809 51.8748 14.8444 51.8748 18.0947V30.3342H55.5048V17.7151C55.5048 17.0387 55.6308 16.364 55.7993 15.8584C56.4326 14.042 58.0788 12.4809 60.1897 12.4809C63.1859 12.4809 64.6209 14.8444 64.6209 18.77V30.3342H68.2504V18.3053C68.2504 11.216 64.2413 9.44217 61.5397 9.44217C59.5984 9.44217 58.2478 9.9489 57.0238 10.8767C56.1795 11.5111 55.3782 12.3958 54.7449 13.5369H54.6599C53.774 11.1309 51.6637 9.44217 48.8775 9.44217C45.5017 9.44217 43.6029 11.2564 42.4629 13.1976H42.3359L42.1673 9.90636H38.9175Z" fill="white"/>
<path fill-rule="evenodd" clip-rule="evenodd" d="M73.2418 16.5756C73.2418 13.9574 73.1573 11.8482 73.0733 9.90636H76.4071L76.5768 13.4098H76.6607C78.1798 10.9193 80.5858 9.44217 83.9202 9.44217C88.8582 9.44217 92.5706 13.6198 92.5706 19.8244C92.5706 27.1684 88.0984 30.7984 83.2869 30.7984C80.5858 30.7984 78.2218 29.6169 76.9984 27.5905H76.9138V38.6905H73.2418V16.5756ZM76.9138 22.0204C76.9138 22.5685 76.9984 23.0753 77.0824 23.5395C77.7582 26.1135 79.9946 27.8851 82.6537 27.8851C86.5787 27.8851 88.8582 24.6789 88.8582 19.994C88.8582 15.8993 86.7053 12.3958 82.7807 12.3958C80.2482 12.3958 77.8848 14.2122 77.1675 16.9978C77.0404 17.4609 76.9138 18.0102 76.9138 18.5175V22.0204Z" fill="white"/>
<path fill-rule="evenodd" clip-rule="evenodd" d="M147.059 30.3342C146.808 28.9422 146.723 27.2104 146.723 25.4387V17.798C146.723 13.7049 145.204 9.44217 138.957 9.44217C136.383 9.44217 133.935 10.1589 132.245 11.2564L133.09 13.7049C134.525 12.7771 136.508 12.1858 138.407 12.1858C142.585 12.1858 143.051 15.2245 143.051 16.9133V17.3354C135.159 17.2929 130.767 19.994 130.767 24.932C130.767 27.8851 132.88 30.7984 137.014 30.7984C139.927 30.7984 142.121 29.3644 143.26 27.7602H143.386L143.684 30.3342H147.059ZM134.484 24.5098C134.484 20.5422 139.083 19.8244 143.135 19.9095V23.4544C143.135 23.8351 143.051 24.2567 142.925 24.6369C142.331 26.366 140.646 28.0558 137.983 28.0558C136.084 28.0558 134.484 26.9158 134.484 24.5098Z" fill="white"/>
<path fill-rule="evenodd" clip-rule="evenodd" d="M169.532 0.36853V25.0591C169.532 26.8733 169.572 28.9422 169.701 30.3342H166.367L166.198 26.7882H166.113C164.974 29.0682 162.484 30.7984 159.148 30.7984C154.21 30.7984 150.412 26.6207 150.412 20.4162C150.37 13.6198 154.59 9.44217 159.571 9.44217C162.695 9.44217 164.804 10.9193 165.733 12.5654H165.818V0.36853H169.532ZM165.818 18.2207C165.818 17.7576 165.774 17.1233 165.648 16.6585C165.1 14.2967 163.075 12.3549 160.287 12.3549C156.448 12.3549 154.169 15.7313 154.169 20.2465C154.169 24.3827 156.193 27.8027 160.202 27.8027C162.695 27.8027 164.974 26.1565 165.648 23.3698C165.774 22.8631 165.818 22.3574 165.818 21.7662V18.2207Z" fill="white"/>
<path d="M178.362 30.3342H174.648V9.90635H178.362V30.3342Z" fill="white"/>
<path d="M176.418 6.44545C177.897 6.44545 178.827 5.43363 178.783 4.16708C178.783 2.85799 177.897 1.84563 176.503 1.84563C175.153 1.84563 174.184 2.85799 174.184 4.16708C174.184 5.43363 175.113 6.44545 176.418 6.44545Z" fill="white"/>
<path fill-rule="evenodd" clip-rule="evenodd" d="M197.783 25.4387C197.783 27.2104 197.868 28.9422 198.119 30.3342H194.745L194.446 27.7602H194.321C193.181 29.3644 190.987 30.7984 188.074 30.7984C183.94 30.7984 181.827 27.8851 181.827 24.932C181.827 19.994 186.219 17.2929 194.111 17.3354V16.9133C194.111 15.2245 193.647 12.1858 189.468 12.1858C187.569 12.1858 185.585 12.7771 184.15 13.7049L183.306 11.2564C184.995 10.1589 187.443 9.44217 190.017 9.44217C196.264 9.44217 197.783 13.7049 197.783 17.798V25.4387ZM194.195 19.9095C190.143 19.8244 185.544 20.5422 185.544 24.5098C185.544 26.9158 187.145 28.0558 189.045 28.0558C191.706 28.0558 193.392 26.366 193.985 24.6369C194.111 24.2567 194.195 23.8351 194.195 23.4544V19.9095Z" fill="white"/>
<path d="M207.028 9.90635V5.01144L203.399 6.15035V9.90635H200.235V12.7351H203.399V23.8765C203.399 26.2814 203.779 28.0978 204.834 29.1947C205.722 30.2071 207.113 30.7984 208.846 30.7984C210.28 30.7984 211.42 30.5442 212.135 30.2496L211.969 27.4634C211.42 27.6325 210.83 27.7176 209.815 27.7176C207.747 27.7176 207.028 26.2814 207.028 23.75V12.7351H212.349V9.90635H207.028Z" fill="white"/>
<path fill-rule="evenodd" clip-rule="evenodd" d="M233.682 19.952C233.682 27.506 228.449 30.7984 223.511 30.7984C217.983 30.7984 213.72 26.7462 213.72 20.2896C213.72 13.4524 218.194 9.44217 223.85 9.44217C229.715 9.44217 233.682 13.7049 233.682 19.952ZM217.475 20.162C217.475 24.6369 220.049 28.0127 223.68 28.0127C227.225 28.0127 229.884 24.6789 229.884 20.0791C229.884 16.6182 228.154 12.2278 223.765 12.2278C219.374 12.2278 217.475 16.2789 217.475 20.162Z" fill="white"/>
<path d="M237.358 9.90636C237.484 11.8056 237.527 13.8745 237.527 16.2789V30.3342H241.2V19.4447C241.2 18.8125 241.282 18.2207 241.366 17.7151C241.875 14.9294 243.731 12.9451 246.348 12.9451C246.853 12.9451 247.233 12.9876 247.613 13.0722V9.56927C247.277 9.48417 246.982 9.44217 246.558 9.44217C244.069 9.44217 241.831 11.1734 240.902 13.9165H240.736L240.607 9.90636H237.358Z" fill="white"/>
</svg>
