<svg width="66" height="66" viewBox="0 0 66 66" fill="none" xmlns="http://www.w3.org/2000/svg">
<path fill-rule="evenodd" clip-rule="evenodd" d="M30.3202 41.5442C29.5064 43.5886 29.0602 45.8157 29.0602 48.1513C29.0602 58.0017 37.0505 65.9904 46.9031 65.9904C56.76 65.9904 64.7476 58.0017 64.7476 48.1513C64.7476 38.2944 57.6889 33.1966 57.6889 33.1966C62.1835 29.8486 65.3602 24.9127 65.3602 18.52C65.3602 8.3849 56.9798 0.233077 46.8507 0.233077C36.7184 0.233077 28.6724 8.6249 28.6724 18.52C28.6724 28.4151 21.3911 29.3555 17.5156 29.3555C14.4714 29.3555 6.24162 26.4487 6.45271 17.584C6.85471 9.32036 13.9969 6.51563 18.0414 6.51563C19.3538 6.51563 20.2729 6.7889 20.2729 6.7889L24.7887 1.61417C24.7887 1.61417 22.0549 0.256532 18.204 0.165441C8.81508 -0.0576503 0.243257 7.42926 0.00543833 17.4302C-0.231834 27.4333 7.45635 35.6495 17.4022 35.8835C27.3513 36.1207 32.2353 29.4531 32.2353 29.4531C35.484 33.8069 40.6898 36.5707 46.7242 36.5707C53.4087 36.5707 58.1891 41.9402 58.1891 48.2009C58.1891 54.4649 53.1131 59.5442 46.8507 59.5442C40.5867 59.5442 35.5107 54.4649 35.5107 48.2009C35.5107 47.4766 35.5784 46.7697 35.7109 46.0791L30.3202 41.5442ZM46.7945 7.34745C40.686 7.34745 35.7327 12.3013 35.7327 18.4082C35.7327 24.5167 40.686 29.4716 46.7945 29.4716C52.9036 29.4716 57.8558 24.5167 57.8558 18.4082C57.8558 12.3013 52.9036 7.34745 46.7945 7.34745Z" fill="#C8102E"/>
</svg>
